PathFileType	4	(X/Y/Z)	s04c0001.trc
DataRate	CameraRate	NumFrames	NumMarkers	Units	OrigDataRate	OrigDataStartFrame	OrigNumFrames
200	200	4	49	mm	200	750	2000
Frame#	Time	racr			lacr			c7			jug			rlel			rdr			llel			ldr			s2			lic			ric			lasi			rasi			rpsi			lpsi			rgt			lgt			rth1			rth2			rth3			rth4			rlfc			rmfc			rsh1			rsh2			rsh3			rsh4			rlmal			rmmal			rcal			rtoe			rmt5			rmt1			lth1			lth2			lth4			lth3			llfc			lmfc			lsh1			lsh2			lsh3			lsh4			llmal			lmmal			lcal			ltoe			lmt1			lmt5			
		X1	Y1	Z1	X2	Y2	Z2	X3	Y3	Z3	X4	Y4	Z4	X5	Y5	Z5	X6	Y6	Z6	X7	Y7	Z7	X8	Y8	Z8	X9	Y9	Z9	X10	Y10	Z10	X11	Y11	Z11	X12	Y12	Z12	X13	Y13	Z13	X14	Y14	Z14	X15	Y15	Z15	X16	Y16	Z16	X17	Y17	Z17	X18	Y18	Z18	X19	Y19	Z19	X20	Y20	Z20	X21	Y21	Z21	X22	Y22	Z22	X23	Y23	Z23	X24	Y24	Z24	X25	Y25	Z25	X26	Y26	Z26	X27	Y27	Z27	X28	Y28	Z28	X29	Y29	Z29	X30	Y30	Z30	X31	Y31	Z31	X32	Y32	Z32	X33	Y33	Z33	X34	Y34	Z34	X35	Y35	Z35	X36	Y36	Z36	X37	Y37	Z37	X38	Y38	Z38	X39	Y39	Z39	X40	Y40	Z40	X41	Y41	Z41	X42	Y42	Z42	X43	Y43	Z43	X44	Y44	Z44	X45	Y45	Z45	X46	Y46	Z46	X47	Y47	Z47	X48	Y48	Z48	X49	Y49	Z49	
750	3.7500	164.907120	1566.747192	284.211578	196.893799	1566.261475	-81.711617	112.983192	1591.609863	84.590332	248.708298	1532.670532	99.706169	94.444199	1227.140869	384.343292	210.101639	988.686829	498.422668	156.449005	1252.402832	-199.089401	292.295288	991.566589	-278.734802	63.301807	1053.763550	97.975182	238.997681	1112.735962	-47.064560	201.906921	1102.221558	273.968536	285.678497	1056.927734	6.017837	266.350464	1060.949707	232.275436	80.119110	1089.118530	142.383118	81.698753	1085.157837	63.276230	164.964066	1000.992615	278.008698	188.716644	955.998901	-67.439743	180.072708	865.681274	299.674988	194.951431	779.065002	289.890228	167.930435	698.956665	280.167999	230.834351	778.494507	280.030945	153.928253	547.910400	250.113007	161.468323	525.473206	139.973969	105.473564	425.503601	268.493225	121.553795	336.022308	260.075958	88.684792	256.892578	243.229355	157.675964	335.344635	245.973251	89.146347	103.119980	231.643600	138.469009	111.362854	159.432465	48.177608	68.255409	168.124237	314.019745	83.399216	304.764069	232.165009	52.835476	326.687225	279.346252	49.991562	227.716736	192.049942	862.341248	-79.962257	211.630035	777.551819	-77.868172	246.956467	776.300720	-67.765236	185.661591	692.553223	-72.341568	165.056702	551.730469	-53.698578	190.895844	521.892090	50.693665	148.700027	423.585022	-80.387062	171.101547	339.724854	-67.864075	147.564148	253.863770	-67.513336	200.383331	341.167236	-41.680691	146.806702	104.525589	-63.816978	154.831772	100.134224	22.074158	80.145844	77.284470	-14.596772	376.938385	82.987885	-57.737427	312.825195	55.045685	0.001789	302.236694	43.196148	-111.003792	
751	3.7550	164.948044	1566.794800	284.201660	196.913635	1566.312134	-81.718452	113.002625	1591.621460	84.590591	248.717453	1532.721924	99.708694	94.470558	1227.198120	384.401489	210.149887	988.770813	498.495941	156.422455	1252.471558	-199.140366	292.198975	991.574280	-278.763397	63.277531	1053.759155	97.977562	238.959869	1112.750366	-47.058647	201.918488	1102.261475	273.980560	285.647034	1056.927612	6.027957	266.318817	1060.955444	232.297012	80.105812	1089.169312	142.417877	81.654144	1085.171753	63.284565	164.921356	1001.001099	278.022278	188.686798	955.990540	-67.428894	180.037308	865.691772	299.688232	194.898941	779.181335	290.204254	167.899399	698.949158	280.174316	230.881485	778.367615	280.147339	153.914597	547.900330	250.105667	161.464462	525.471985	139.974625	105.454941	425.506958	268.495544	121.528969	336.028625	260.078491	88.658585	256.886902	243.229614	157.675781	335.339874	245.972076	89.153824	103.116798	231.638351	138.466187	111.350136	159.429581	48.175194	68.253639	168.123596	314.037720	83.400360	304.769897	232.167236	52.822102	326.689056	279.339294	49.986519	227.707947	192.024109	862.341431	-79.968262	211.618912	777.547974	-77.853928	246.953613	776.302063	-67.751244	185.647629	692.551514	-72.345299	165.060837	551.726868	-53.695854	190.896942	521.899658	50.702824	148.699326	423.575439	-80.383240	171.094040	339.705505	-67.836365	147.569443	253.880096	-67.509628	200.379532	341.169250	-41.683060	146.805359	104.525116	-63.802628	154.823730	100.135330	22.073393	80.146095	77.290909	-14.599657	376.933319	83.009789	-57.739506	312.818115	55.055939	0.000235	302.212402	43.190456	-110.988907	
752	3.7600	164.982285	1566.848022	284.198730	196.951080	1566.339355	-81.725586	113.005142	1591.645630	84.567627	248.733734	1532.758911	99.707344	94.525887	1227.270386	384.440491	210.207718	988.837830	498.546265	156.401077	1252.511597	-199.159668	292.119720	991.570312	-278.772949	63.244278	1053.772461	97.980988	238.936523	1112.737671	-47.023003	201.915161	1102.254761	273.982147	285.624023	1056.941650	6.043225	266.337341	1060.994507	232.324219	80.098076	1089.127197	142.419647	81.618080	1085.190063	63.290699	164.885864	1000.996643	278.026093	188.672806	956.004272	-67.426910	179.973251	865.688232	299.681396	194.842896	779.200012	290.217743	167.875336	698.933228	280.162750	230.817780	778.377991	280.173950	153.889130	547.902222	250.118896	161.449768	525.469727	139.990433	105.427750	425.495667	268.504791	121.548622	336.032501	260.079285	88.655396	256.873383	243.222717	157.670532	335.326874	245.974228	89.151817	103.108826	231.642944	138.459854	111.365303	159.426407	48.189285	68.259003	168.133850	314.014557	83.402687	304.768280	232.165970	52.837635	326.682068	279.341003	49.983845	227.710754	192.006897	862.343933	-79.949814	211.604553	777.534119	-77.839401	246.927826	776.294189	-67.736977	185.626648	692.553894	-72.341141	165.053879	551.732544	-53.693523	190.894058	521.896973	50.716633	148.708160	423.594574	-80.378769	171.099365	339.701843	-67.856262	147.570419	253.866638	-67.507614	200.398087	341.163147	-41.669022	146.824158	104.505997	-63.795712	154.823303	100.135559	22.073715	80.150864	77.284531	-14.590993	376.926636	82.995934	-57.743057	312.828766	55.051567	0.001108	302.223236	43.190231	-110.994873	
753	3.7650	165.009354	1566.895508	284.206940	196.965302	1566.387939	-81.748901	112.987686	1591.668457	84.574600	248.761215	1532.802979	99.684448	94.550514	1227.339844	384.509491	210.250458	988.916138	498.609985	156.370697	1252.566284	-199.188553	292.040314	991.573242	-278.778320	63.223904	1053.776245	97.985657	238.910217	1112.735596	-47.000000	201.915604	1102.255249	274.008148	285.580750	1056.938599	6.053356	266.280487	1060.999023	232.331406	80.084396	1089.168335	142.449127	81.573792	1085.188232	63.294003	164.837646	1000.992737	278.023285	188.661087	956.003662	-67.414322	179.944916	865.682861	299.678772	194.814331	779.191040	290.228119	167.852081	698.937744	280.167999	230.810471	778.368774	280.152283	153.878433	547.897217	250.122223	161.421661	525.473328	139.982956	105.424126	425.487946	268.506439	121.532829	336.017059	260.092987	88.645020	256.872406	243.222183	157.646988	335.332855	245.974640	89.148033	103.106125	231.653046	138.451782	111.365501	159.404190	48.176628	68.259766	168.126099	314.027588	83.410515	304.765289	232.190353	52.823280	326.681793	279.339203	49.994064	227.723511	192.000351	862.339844	-79.936981	211.575455	777.546753	-77.848335	246.905670	776.315308	-67.760796	185.629578	692.550110	-72.324554	165.045166	551.727173	-53.674683	190.883896	521.883850	50.709881	148.706543	423.585449	-80.362907	171.089127	339.710327	-67.841682	147.569931	253.859192	-67.507294	200.370743	341.160248	-41.664051	146.805359	104.525124	-63.802635	154.842346	100.126213	22.058174	80.150795	77.285774	-14.592385	376.937744	83.002457	-57.751236	312.822632	55.046703	-0.014162	302.225922	43.196457	-110.997871	
